<?xml version="1.0" standalone="no"?>
<!DOCTYPE svg PUBLIC "-//W3C//DTD SVG 20010904//EN"
 "http://www.w3.org/TR/2001/REC-SVG-20010904/DTD/svg10.dtd">
<svg version="1.0" xmlns="http://www.w3.org/2000/svg"
 width="512.000000pt" height="512.000000pt" viewBox="0 0 512.000000 512.000000"
 preserveAspectRatio="xMidYMid meet">

<g transform="translate(0.000000,512.000000) scale(0.100000,-0.100000)"
fill="#000000" stroke="none">
<path d="M1395 5110 c-55 -4 -116 -11 -136 -15 -30 -6 -122 -93 -632 -603
l-596 -597 -12 -60 c-16 -84 -25 -2281 -9 -2449 35 -384 169 -676 434 -942
183 -183 366 -296 601 -369 229 -72 153 -68 1450 -72 776 -3 1203 0 1268 6
209 23 342 62 532 156 418 207 710 599 802 1075 17 89 18 176 18 1310 0 1364
3 1303 -75 1540 -76 232 -184 406 -364 586 -261 260 -560 400 -926 433 -131
12 -2193 13 -2355 1z m880 -2154 c185 -680 282 -1022 287 -1010 4 11 130 469
279 1019 150 550 277 1006 282 1013 7 9 96 12 383 12 205 0 375 -3 378 -8 2
-4 -210 -645 -472 -1425 l-477 -1417 -379 3 -379 2 -473 1413 c-261 778 -474
1418 -474 1423 0 6 156 8 382 7 l383 -3 280 -1029z"/>
</g>
</svg>
